<?xml version="1.0" encoding="utf-8"?>
<!-- Generator: Adobe Illustrator 24.1.3, SVG Export Plug-In . SVG Version: 6.00 Build 0)  -->
<svg version="1.1" id="Layer_1" xmlns="http://www.w3.org/2000/svg" xmlns:xlink="http://www.w3.org/1999/xlink" x="0px" y="0px"
	 viewBox="0 0 438 512" style="enable-background:new 0 0 438 512;" xml:space="preserve">
<style type="text/css">
	.st0{fill:#FC5652;}
	.st1{fill:#00ABCD;}
	.st2{fill:#F6C574;}
	.st3{fill:#333567;}
</style>
<g>
	<polygon class="st0" points="140.9,211.5 85.4,179.4 85.4,248.9 140.9,281 	"/>
	<polygon class="st0" points="140.9,298.3 85.4,266.2 85.4,335.7 140.9,367.8 	"/>
	<polygon class="st0" points="140.9,385.1 85.4,353 85.4,422.5 140.9,454.6 	"/>
	<polygon class="st0" points="15,295.1 70.4,327 70.4,257.6 15,225.6 	"/>
	<path class="st0" d="M70.4,170.7L15,138.8c0,0.4,0,0.7,0,1.1h0v68.4l55.4,32V170.7z"/>
	<path class="st0" d="M211.6,495.3v-69.4l-55.7-32.2v69.5l54.6,31.5C210.9,495,211.2,495.1,211.6,495.3z"/>
	<path class="st0" d="M15,372.1c0,6,3.2,11.6,8.5,14.6l46.9,27.1v-69.5l-55.4-32V372.1z"/>
	<polygon class="st0" points="211.6,252.3 155.9,220.1 155.9,289.6 211.6,321.8 	"/>
	<polygon class="st0" points="211.6,339.1 155.9,306.9 155.9,376.4 211.6,408.6 	"/>
	<path class="st1" d="M367.7,413.8l46.9-27.1c5.2-3,8.5-8.6,8.5-14.7v-59.7l-55.4,32V413.8z"/>
	<polygon class="st1" points="226.6,321.7 282.1,289.6 282.1,220.1 226.6,252.2 	"/>
	<path class="st1" d="M423,139.9c0-0.4,0-0.7,0-1.1l-55.3,32v69.5l55.4-32V139.9z"/>
	<polygon class="st1" points="297.1,367.8 352.7,335.7 352.7,266.2 297.1,298.3 	"/>
	<polygon class="st1" points="297.1,454.5 352.7,422.5 352.7,353 297.1,385.1 	"/>
	<polygon class="st1" points="352.7,179.4 297.1,211.5 297.1,281 352.7,248.9 	"/>
	<polygon class="st1" points="367.7,327 423,295.1 423,225.6 367.7,257.6 	"/>
	<path class="st1" d="M226.6,495.2c0.3-0.1,0.5-0.3,0.8-0.4l54.7-31.6v-69.4l-55.5,32.1V495.2z"/>
	<polygon class="st1" points="226.6,408.5 282.1,376.4 282.1,306.9 226.6,339 	"/>
	<path class="st2" d="M360,93.8l-55.5,32l55.5,32l55.5-32c-0.3-0.2-0.6-0.4-0.9-0.6L360,93.8z"/>
	<polygon class="st2" points="163.5,207.2 219,239.2 274.5,207.2 219,175.2 	"/>
	<path class="st2" d="M78,93.7l-54.5,31.5c-0.3,0.2-0.6,0.4-0.9,0.6l55.5,32l55.5-32L78,93.7z"/>
	<polygon class="st2" points="204,85.1 148.5,53 93,85.1 148.5,117.1 	"/>
	<polygon class="st2" points="148.5,134.5 93,166.5 148.5,198.5 204,166.5 	"/>
	<polygon class="st2" points="163.5,125.8 219,157.8 274.5,125.8 219,93.8 	"/>
	<path class="st2" d="M274.5,44.4l-47.1-27.2c-5.2-3-11.7-3-16.9,0l-47,27.1L219,76.5L274.5,44.4z"/>
	<polygon class="st2" points="234,166.5 289.5,198.5 345,166.5 289.5,134.5 	"/>
	<polygon class="st2" points="289.5,117.1 345,85.1 289.5,53.1 234,85.1 	"/>
	<path class="st3" d="M422.1,112.2L422.1,112.2L234.9,4.3c-9.8-5.7-22.1-5.7-31.9,0l-187,108c-9.8,5.7-16,16.3-16,27.6v232.2
		c0,11.4,6.1,22,16,27.6l187,108c4.9,2.8,10.4,4.3,16,4.3c5.5,0,11-1.4,15.9-4.3l57.7-33.3c0.5-0.2,1-0.5,1.5-0.8l69.4-40
		c0.3-0.2,0.7-0.4,1-0.6l57.7-33.3c9.8-5.7,16-16.3,16-27.6V139.9C438,128.5,431.9,117.9,422.1,112.2z M155.9,376.4v-69.5l55.7,32.2
		v69.5L155.9,376.4z M211.6,425.9v69.4c-0.4-0.2-0.7-0.4-1.1-0.6l-54.6-31.5v-69.5L211.6,425.9z M148.5,198.5l-55.5-32l55.5-32
		l55.5,32L148.5,198.5z M15,295.1v-69.5l55.4,32V327L15,295.1z M70.4,344.4v69.5l-46.9-27.1c-5.2-3-8.5-8.6-8.5-14.6v-59.7
		L70.4,344.4z M133.5,125.8l-55.5,32l-55.5-32c0.3-0.2,0.6-0.4,0.9-0.6L78,93.7L133.5,125.8z M93,85.1l55.5-32L204,85.1l-55.5,32
		L93,85.1z M85.4,179.4l55.5,32.1V281l-55.5-32.1V179.4z M85.4,353l55.5,32.1v69.5l-55.5-32.1V353z M85.4,335.7v-69.5l55.5,32.1
		v69.5L85.4,335.7z M163.5,125.8l55.5-32l55.5,32l-55.5,32L163.5,125.8z M234,85.1l55.5-32l55.5,32l-55.5,32L234,85.1z M219,76.5
		l-55.5-32.1l47-27.1c5.2-3,11.7-3,16.9,0l47.1,27.2L219,76.5z M15,139.9L15,139.9c0-0.4,0-0.7,0-1.1l55.3,31.9v69.5l-55.4-32V139.9
		z M211.6,321.8l-55.7-32.2v-69.5l55.7,32.2V321.8z M163.5,207.2l55.5-32l55.5,32l-55.5,32L163.5,207.2z M234,166.5l55.5-32l55.5,32
		l-55.5,32L234,166.5z M304.5,125.8l55.5-32l54.6,31.5c0.3,0.2,0.6,0.4,0.9,0.6l-55.5,32L304.5,125.8z M282.1,306.9v69.5l-55.5,32.1
		V339L282.1,306.9z M226.6,321.7v-69.5l55.5-32.1v69.5L226.6,321.7z M282.1,393.7v69.4l-54.7,31.6c-0.3,0.2-0.5,0.3-0.8,0.4v-69.4
		L282.1,393.7z M297.1,367.8v-69.5l55.5-32.1v69.5L297.1,367.8z M352.7,353v69.5l-55.5,32v-69.4L352.7,353z M352.7,248.9L297.1,281
		v-69.5l55.5-32.1V248.9z M423,208.3l-55.4,32v-69.5l55.3-32c0,0.4,0,0.7,0,1.1V208.3z M423,225.6v69.5l-55.4,32v-69.5L423,225.6z
		 M367.7,344.4l55.4-32v59.7c0,6-3.2,11.6-8.5,14.7l-46.9,27.1V344.4z"/>
</g>
</svg>
