<?xml version="1.0" encoding="utf-8"?>
<!-- Generator: Adobe Illustrator 24.0.0, SVG Export Plug-In . SVG Version: 6.00 Build 0)  -->
<svg version="1.1" id="Layer_1" xmlns="http://www.w3.org/2000/svg" xmlns:xlink="http://www.w3.org/1999/xlink" x="0px" y="0px"
	 viewBox="0 0 90.89 90.89" style="enable-background:new 0 0 90.89 90.89;" xml:space="preserve">
<style type="text/css">
	.st0{opacity:0.4;}
	.st1{fill:#FFFFFF;}
</style>
<g class="st0">
	<g>
		<path class="st1" d="M49.23,22.72c0,2.09-1.7,3.79-3.79,3.79c-2.09,0-3.79-1.7-3.79-3.79s1.7-3.79,3.79-3.79
			C47.54,18.94,49.23,20.63,49.23,22.72z"/>
		<path class="st1" d="M45.45,71.96c-1.57,0-2.84-1.27-2.84-2.84V39.77h-3.79c-1.57,0-2.84-1.27-2.84-2.84s1.27-2.84,2.84-2.84h6.63
			c1.57,0,2.84,1.27,2.84,2.84v32.19C48.29,70.69,47.02,71.96,45.45,71.96z"/>
		<path class="st1" d="M45.45,90.89C20.39,90.89,0,70.51,0,45.45S20.39,0,45.45,0s45.45,20.39,45.45,45.45S70.51,90.89,45.45,90.89z
			 M45.45,5.68c-21.93,0-39.77,17.84-39.77,39.77s17.84,39.77,39.77,39.77s39.77-17.84,39.77-39.77S67.38,5.68,45.45,5.68z"/>
		<path class="st1" d="M53.97,71.96H36.93c-1.57,0-2.84-1.27-2.84-2.84c0-1.57,1.27-2.84,2.84-2.84h17.04
			c1.57,0,2.84,1.27,2.84,2.84C56.81,70.69,55.54,71.96,53.97,71.96z"/>
	</g>
</g>
</svg>
