<?xml version="1.0" encoding="utf-8"?>
<!-- Generator: Adobe Illustrator 24.0.0, SVG Export Plug-In . SVG Version: 6.00 Build 0)  -->
<svg version="1.1" id="Layer_1" xmlns="http://www.w3.org/2000/svg" xmlns:xlink="http://www.w3.org/1999/xlink" x="0px" y="0px"
	 viewBox="0 0 83.53 52.69" style="enable-background:new 0 0 83.53 52.69;" xml:space="preserve">
<style type="text/css">
	.st0{opacity:0.4;}
	.st1{fill:#FFFFFF;}
</style>
<g class="st0">
	<path class="st1" d="M32.76,52.69C14.7,52.69,0,37.81,0,19.53v-0.01C0,8.57,8.4,0,19.12,0c10.66,0,19.32,8.76,19.32,19.53
		c0,8.86-5.96,16.36-14.1,18.74c2.51,1.09,5.22,1.66,8.03,1.66c3.51,0,6.37,2.86,6.37,6.38C38.74,49.95,36.17,52.69,32.76,52.69z
		 M19.12,4C10.64,4,4,10.82,4,19.52v0.01c0,16.08,12.9,29.16,28.76,29.16c1.37,0,1.98-1.2,1.98-2.38c0-1.31-1.06-2.38-2.37-2.38
		c-5.54,0-10.77-1.84-15.14-5.32c-0.67-0.53-0.93-1.43-0.64-2.24s1.05-1.34,1.92-1.32l0.24,0.01c0,0,0.01,0,0.01,0
		c8.68,0,15.69-6.96,15.69-15.52C34.44,10.97,27.57,4,19.12,4z"/>
	<path class="st1" d="M77.53,52.69c-18.08,0-32.78-14.88-32.78-33.16v-0.01C44.75,8.57,53.15,0,63.89,0
		c10.66,0,19.34,8.76,19.34,19.53c0,8.86-5.96,16.36-14.09,18.74c2.51,1.09,5.23,1.66,8.03,1.66c3.51,0,6.37,2.86,6.37,6.38
		C83.53,49.95,80.95,52.69,77.53,52.69z M63.89,4c-8.49,0-15.14,6.82-15.14,15.52v0.01c0,16.08,12.91,29.16,28.78,29.16
		c1.38,0,2-1.2,2-2.38c0-1.31-1.06-2.38-2.37-2.38c-5.54,0-10.77-1.84-15.14-5.32c-0.67-0.53-0.93-1.43-0.64-2.24
		c0.29-0.81,1.04-1.34,1.92-1.32l0.23,0.01c0,0,0.01,0,0.01,0c8.68,0,15.68-6.96,15.68-15.52C79.23,10.97,72.35,4,63.89,4z"/>
</g>
</svg>
