<?xml version="1.0" encoding="utf-8"?>
<!-- Generator: Adobe Illustrator 24.0.1, SVG Export Plug-In . SVG Version: 6.00 Build 0)  -->
<svg version="1.1" id="Layer_1" xmlns="http://www.w3.org/2000/svg" xmlns:xlink="http://www.w3.org/1999/xlink" x="0px" y="0px"
	 viewBox="0 0 90.9 90.9" style="enable-background:new 0 0 90.9 90.9;" xml:space="preserve">
<style type="text/css">
	.st0{fill:#FFFFFF;enable-background:new    ;}
</style>
<g>
	<path class="st0" d="M49.2,68.2c0,2.1-1.7,3.8-3.8,3.8s-3.8-1.7-3.8-3.8s1.7-3.8,3.8-3.8C47.5,64.4,49.2,66.1,49.2,68.2z"/>
	<g>
		<path class="st0" d="M45.4,56.8c-1.6,0-2.8-1.3-2.8-2.8V21.8c0-1.6,1.3-2.8,2.8-2.8s2.8,1.3,2.8,2.8V54
			C48.3,55.5,47,56.8,45.4,56.8z"/>
		<path class="st0" d="M45.4,90.9C20.4,90.9,0,70.5,0,45.5S20.4,0,45.4,0s45.5,20.4,45.5,45.5S70.5,90.9,45.4,90.9z M45.4,5.7
			C23.5,5.7,5.7,23.5,5.7,45.5s17.8,39.8,39.8,39.8s39.8-17.8,39.8-39.8S67.4,5.7,45.4,5.7z"/>
	</g>
</g>
</svg>
