<?xml version="1.0" encoding="utf-8"?>
<!-- Generator: Adobe Illustrator 24.0.1, SVG Export Plug-In . SVG Version: 6.00 Build 0)  -->
<svg version="1.1" id="Layer_1" xmlns="http://www.w3.org/2000/svg" xmlns:xlink="http://www.w3.org/1999/xlink" x="0px" y="0px"
	 viewBox="0 0 90.9 90.9" style="enable-background:new 0 0 90.9 90.9;" xml:space="preserve">
<style type="text/css">
	.st0{fill:#FFFFFF;}
</style>
<g>
	<g>
		<path class="st0" d="M36.6,59c-2.3,0-4.6-0.4-6.8-1.2c8.1-2.9,13.7-10.7,13.7-19.5c0-11.4-9.2-20.7-20.5-20.7
			c-11.4,0-20.3,9.1-20.3,20.7c0,19.3,15.5,35,34.6,35c1.8,0,3.5-0.7,4.7-1.9c1.3-1.3,2-3.2,1.9-5.2C43.8,62.2,40.6,59,36.6,59z
			 M20.9,58.6c4.5,3.7,10,5.6,16,5.6c1.1,0,2,0.9,2,2c0,0.3-0.1,2-1.6,2c-16.2,0-29.4-13.4-29.4-29.8c0-8.7,6.7-15.6,15.2-15.6
			c8.4,0,15.4,7,15.5,15.7C38.5,47,31.4,54,22.7,54h-0.2c-1.1,0-2,0.6-2.4,1.7C19.7,56.8,20,57.9,20.9,58.6z"/>
	</g>
	<path class="st0" d="M81.1,59c-2.3,0-4.6-0.4-6.8-1.2C82.4,54.9,88,47.1,88,38.3c0-11.4-9.2-20.7-20.5-20.7
		c-11.4,0-20.3,9.1-20.3,20.7c0,19.3,15.5,35,34.6,35c1.8,0,3.5-0.7,4.7-1.9c1.3-1.3,2-3.2,1.9-5.2C88.3,62.2,85.1,59,81.1,59z
		 M65.4,58.6c4.5,3.7,10,5.6,16,5.6c1.1,0,2,0.9,2,2c0,0.3-0.1,2-1.6,2c-16.2,0-29.4-13.4-29.4-29.8c0-8.7,6.7-15.6,15.2-15.6
		c8.4,0,15.4,7,15.5,15.7C83,47,75.9,54,67.2,54H67c-1.1,0-2,0.6-2.4,1.7C64.2,56.8,64.5,57.9,65.4,58.6z"/>
</g>
</svg>
