<?xml version="1.0" encoding="utf-8"?>
<!-- Generator: Adobe Illustrator 24.0.0, SVG Export Plug-In . SVG Version: 6.00 Build 0)  -->
<svg version="1.1" id="Layer_1" xmlns="http://www.w3.org/2000/svg" xmlns:xlink="http://www.w3.org/1999/xlink" x="0px" y="0px"
	 viewBox="0 0 90.89 90.89" style="enable-background:new 0 0 90.89 90.89;" xml:space="preserve">
<style type="text/css">
	.st0{opacity:0.4;fill:#FFFFFF;}
</style>
<g>
	<path class="st0" d="M49.23,68.17c0,2.09-1.7,3.79-3.79,3.79c-2.09,0-3.79-1.7-3.79-3.79s1.7-3.79,3.79-3.79
		C47.54,64.38,49.23,66.08,49.23,68.17z"/>
	<g>
		<path class="st0" d="M45.45,56.81c-1.57,0-2.84-1.27-2.84-2.84V21.78c0-1.57,1.27-2.84,2.84-2.84c1.57,0,2.84,1.27,2.84,2.84
			v32.19C48.29,55.54,47.02,56.81,45.45,56.81z"/>
		<path class="st0" d="M45.45,90.89C20.39,90.89,0,70.51,0,45.45S20.39,0,45.45,0s45.45,20.39,45.45,45.45S70.51,90.89,45.45,90.89z
			 M45.45,5.68c-21.93,0-39.77,17.84-39.77,39.77s17.84,39.77,39.77,39.77s39.77-17.84,39.77-39.77S67.38,5.68,45.45,5.68z"/>
	</g>
</g>
</svg>
