<?xml version="1.0" encoding="utf-8"?>
<!-- Generator: Adobe Illustrator 24.0.1, SVG Export Plug-In . SVG Version: 6.00 Build 0)  -->
<svg version="1.1" id="Layer_1" xmlns="http://www.w3.org/2000/svg" xmlns:xlink="http://www.w3.org/1999/xlink" x="0px" y="0px"
	 viewBox="0 0 90.9 90.9" style="enable-background:new 0 0 90.9 90.9;" xml:space="preserve">
<style type="text/css">
	.st0{fill:#FFFFFF;}
</style>
<g>
	<g>
		<path class="st0" d="M49.2,22.7c0,2.1-1.7,3.8-3.8,3.8s-3.8-1.7-3.8-3.8s1.7-3.8,3.8-3.8C47.5,18.9,49.2,20.6,49.2,22.7z"/>
		<path class="st0" d="M45.5,72c-1.6,0-2.8-1.3-2.8-2.8V39.8h-3.8c-1.6,0-2.8-1.3-2.8-2.8s1.3-2.8,2.8-2.8h6.6
			c1.6,0,2.8,1.3,2.8,2.8v32.2C48.3,70.7,47,72,45.5,72z"/>
		<path class="st0" d="M45.5,90.9C20.4,90.9,0,70.5,0,45.5S20.4,0,45.5,0s45.5,20.4,45.5,45.5S70.5,90.9,45.5,90.9z M45.5,5.7
			C23.5,5.7,5.7,23.5,5.7,45.5s17.8,39.8,39.8,39.8s39.8-17.8,39.8-39.8S67.4,5.7,45.5,5.7z"/>
		<path class="st0" d="M54,72h-17c-1.6,0-2.8-1.3-2.8-2.8s1.3-2.8,2.8-2.8h17c1.6,0,2.8,1.3,2.8,2.8S55.5,72,54,72z"/>
	</g>
</g>
</svg>
