<?xml version="1.0" encoding="utf-8"?>
<!-- Generator: Adobe Illustrator 24.0.0, SVG Export Plug-In . SVG Version: 6.00 Build 0)  -->
<svg version="1.1" id="Layer_1" xmlns="http://www.w3.org/2000/svg" xmlns:xlink="http://www.w3.org/1999/xlink" x="0px" y="0px"
	 viewBox="0 0 90.08 90.08" style="enable-background:new 0 0 90.08 90.08;" xml:space="preserve">
<style type="text/css">
	.st0{opacity:0.4;}
	.st1{fill:#FFFFFF;}
</style>
<g class="st0">
	<path class="st1" d="M45.04,90.08C20.2,90.08,0,69.88,0,45.04S20.2,0,45.04,0s45.04,20.2,45.04,45.04S69.88,90.08,45.04,90.08z
		 M45.04,5.63c-21.73,0-39.41,17.68-39.41,39.41s17.68,39.41,39.41,39.41s39.41-17.68,39.41-39.41S66.77,5.63,45.04,5.63z"/>
	<path class="st1" d="M40.82,60.06c-0.72,0-1.44-0.27-1.99-0.83l-12.2-12.2c-1.1-1.1-1.1-2.88,0-3.98s2.88-1.1,3.98,0l10.21,10.21
		l22.41-22.41c1.1-1.1,2.88-1.1,3.98,0s1.1,2.88,0,3.98l-24.4,24.4C42.26,59.78,41.54,60.06,40.82,60.06z"/>
</g>
</svg>
