<?xml version="1.0" encoding="utf-8"?>
<!-- Generator: Adobe Illustrator 24.0.1, SVG Export Plug-In . SVG Version: 6.00 Build 0)  -->
<svg version="1.1" id="Layer_1" xmlns="http://www.w3.org/2000/svg" xmlns:xlink="http://www.w3.org/1999/xlink" x="0px" y="0px"
	 viewBox="0 0 90.1 90.1" style="enable-background:new 0 0 90.1 90.1;" xml:space="preserve">
<style type="text/css">
	.st0{fill:#FFFFFF;}
</style>
<g>
	<path class="st0" d="M45,90.1c-24.8,0-45-20.2-45-45S20.2,0,45,0s45,20.2,45,45S69.9,90.1,45,90.1z M45,5.6
		C23.3,5.6,5.6,23.3,5.6,45S23.3,84.4,45,84.4S84.4,66.8,84.4,45S66.8,5.6,45,5.6z"/>
	<path class="st0" d="M40.8,60.1c-0.7,0-1.4-0.3-2-0.8L26.6,47c-1.1-1.1-1.1-2.9,0-4s2.9-1.1,4,0l10.2,10.2l22.4-22.4
		c1.1-1.1,2.9-1.1,4,0s1.1,2.9,0,4L42.8,59.2C42.3,59.8,41.5,60.1,40.8,60.1z"/>
</g>
</svg>
